<svg xmlns="http://www.w3.org/2000/svg" width="360" height="128" viewBox="0 0 360 128" role="img" aria-label="licenses"><title>licenses</title><path fill="#1f2328" shape-rendering="crispEdges" d="M8 8h16v16h-16zM16 24h8v16h-8zM48 24h8v16h-8zM16 40h8v16h-8zM80 40h24v16h-24zM128 40h24v16h-24zM168 40h32v16h-32zM224 40h32v16h-32zM272 40h24v16h-24zM320 40h32v16h-32zM16 56h8v16h-8zM40 56h16v16h-16zM72 56h8v16h-8zM104 56h8v16h-8zM120 56h8v16h-8zM152 56h8v16h-8zM168 56h8v16h-8zM200 56h8v16h-8zM216 56h8v16h-8zM264 56h8v16h-8zM296 56h8v16h-8zM312 56h8v16h-8zM16 72h8v16h-8zM48 72h8v16h-8zM72 72h8v16h-8zM120 72h32v16h-32zM168 72h8v16h-8zM200 72h8v16h-8zM224 72h24v16h-24zM264 72h32v16h-32zM320 72h24v16h-24zM16 88h8v16h-8zM48 88h8v16h-8zM72 88h8v16h-8zM104 88h8v16h-8zM120 88h8v16h-8zM168 88h8v16h-8zM200 88h8v16h-8zM248 88h8v16h-8zM264 88h8v16h-8zM344 88h8v16h-8zM24 104h8v16h-8zM40 104h24v16h-24zM80 104h24v16h-24zM128 104h32v16h-32zM168 104h8v16h-8zM200 104h8v16h-8zM216 104h32v16h-32zM272 104h32v16h-32zM312 104h32v16h-32z"/></svg>
